<svg xmlns="http://www.w3.org/2000/svg" width="34" height="29.617" viewBox="0 0 34 29.617">
  <defs>
    <style>
      .cls-1 {
        fill: #2e004b;
      }
    </style>
  </defs>
  <g id="customer" transform="translate(0 -33)">
    <path id="Path_1" data-name="Path 1" class="cls-1" d="M174.777,44.555A5.777,5.777,0,1,0,169,38.777,5.784,5.784,0,0,0,174.777,44.555Zm0-9.562a3.785,3.785,0,1,1-3.785,3.785A3.789,3.789,0,0,1,174.777,34.992Z" transform="translate(-157.777)"/>
    <path id="Path_2" data-name="Path 2" class="cls-1" d="M380.652,104.3A3.652,3.652,0,1,0,377,100.652,3.656,3.656,0,0,0,380.652,104.3Zm0-5.312a1.66,1.66,0,1,1-1.66,1.66A1.662,1.662,0,0,1,380.652,98.992Z" transform="translate(-351.965 -59.75)"/>
    <path id="Path_3" data-name="Path 3" class="cls-1" d="M29.491,241H27.95a4.516,4.516,0,0,0-4.1,2.613A8.017,8.017,0,0,0,17.928,241H16.072a8.017,8.017,0,0,0-5.925,2.613A4.516,4.516,0,0,0,6.05,241H4.509A4.5,4.5,0,0,0,0,245.482v7.252a1.952,1.952,0,0,0,1.953,1.946H8.044a2.328,2.328,0,0,0,2.316,2.125H23.639a2.328,2.328,0,0,0,2.316-2.125h6.022A2.021,2.021,0,0,0,34,252.665v-7.183A4.5,4.5,0,0,0,29.491,241Zm-27.5,4.482a2.506,2.506,0,0,1,2.517-2.49H6.05a2.506,2.506,0,0,1,2.517,2.49v.682c-.67,1.744-.531,2.789-.531,6.524H1.992Zm21.98,9a.334.334,0,0,1-.333.333H10.361a.334.334,0,0,1-.333-.333v-5.442a6.051,6.051,0,0,1,6.044-6.044h1.857a6.051,6.051,0,0,1,6.044,6.044Zm8.035-1.814c0,.034.371.023-6.043.023,0-3.762.138-4.782-.531-6.524v-.682a2.506,2.506,0,0,1,2.517-2.49h1.541a2.506,2.506,0,0,1,2.517,2.49Z" transform="translate(0 -194.188)"/>
    <path id="Path_4" data-name="Path 4" class="cls-1" d="M28.652,104.3A3.652,3.652,0,1,0,25,100.652,3.656,3.656,0,0,0,28.652,104.3Zm0-5.312a1.66,1.66,0,1,1-1.66,1.66A1.662,1.662,0,0,1,28.652,98.992Z" transform="translate(-23.34 -59.75)"/>
  </g>
</svg>
