<svg xmlns="http://www.w3.org/2000/svg" width="30" height="28" viewBox="0 0 33.333 33.333">
  <defs>
    <style>
      .cls-1 {
        fill: #2e004b;
      }
    </style>
  </defs>
  <g id="dashboard" transform="translate(0 0)">
    <path id="Path_37" data-name="Path 37" class="cls-1" d="M2.431,11.111H12.847a2.433,2.433,0,0,0,2.43-2.431V2.431A2.433,2.433,0,0,0,12.847,0H2.431A2.433,2.433,0,0,0,0,2.431v6.25A2.433,2.433,0,0,0,2.431,11.111ZM12.847,2.083a.347.347,0,0,1,.347.347v6.25a.347.347,0,0,1-.347.347H2.431a.348.348,0,0,1-.347-.347V2.431a.347.347,0,0,1,.347-.347Zm0,0" transform="translate(18.055)"/>
    <path id="Path_38" data-name="Path 38" class="cls-1" d="M2.431,232.777H12.847a2.433,2.433,0,0,0,2.43-2.43V215.763a2.433,2.433,0,0,0-2.43-2.431H2.431A2.433,2.433,0,0,0,0,215.763v14.583A2.433,2.433,0,0,0,2.431,232.777Zm10.417-17.361a.347.347,0,0,1,.347.347v14.583a.347.347,0,0,1-.347.347H2.431a.347.347,0,0,1-.347-.347V215.763a.348.348,0,0,1,.347-.347Zm0,0" transform="translate(18.055 -199.443)"/>
    <path id="Path_39" data-name="Path 39" class="cls-1" d="M279.763,352.443h10.417a2.433,2.433,0,0,0,2.431-2.43v-6.25a2.433,2.433,0,0,0-2.431-2.431H279.763a2.433,2.433,0,0,0-2.43,2.431v6.25A2.433,2.433,0,0,0,279.763,352.443Zm10.417-9.028a.348.348,0,0,1,.347.347v6.25a.347.347,0,0,1-.347.347H279.763a.347.347,0,0,1-.347-.347v-6.25a.348.348,0,0,1,.347-.347Zm0,0" transform="translate(-277.332 -319.11)"/>
    <path id="Path_40" data-name="Path 40" class="cls-1" d="M279.763,19.445h10.417a2.433,2.433,0,0,0,2.431-2.431V2.431A2.433,2.433,0,0,0,290.179,0H279.763a2.433,2.433,0,0,0-2.43,2.43V17.014A2.433,2.433,0,0,0,279.763,19.445ZM290.179,2.083a.347.347,0,0,1,.347.347V17.014a.348.348,0,0,1-.347.347H279.763a.347.347,0,0,1-.347-.347V2.431a.347.347,0,0,1,.347-.347Zm0,0" transform="translate(-277.332)"/>
  </g>
</svg>
