<?xml version="1.0" standalone="no"?>
<!DOCTYPE svg PUBLIC "-//W3C//DTD SVG 20010904//EN"
 "http://www.w3.org/TR/2001/REC-SVG-20010904/DTD/svg10.dtd">
<svg version="1.0" xmlns="http://www.w3.org/2000/svg"
 width="100.000000pt" height="100.000000pt" viewBox="0 0 100.000000 100.000000"
 preserveAspectRatio="xMidYMid meet">

<g transform="translate(0.000000,100.000000) scale(0.100000,-0.100000)"
fill="#2e004b" stroke="none">
<path d="M140 500 l0 -460 300 0 c298 0 300 0 288 20 -12 19 -24 20 -280 20
l-268 0 0 420 0 420 200 0 200 0 0 -120 0 -120 120 0 120 0 0 -130 c0 -123 1
-130 20 -130 19 0 20 7 20 143 l0 142 -128 128 -127 127 -233 0 -232 0 0 -460z
m570 305 l85 -85 -88 0 -87 0 0 85 c0 47 1 85 3 85 1 0 40 -38 87 -85z"/>
<path d="M524 627 c-3 -8 -3 -56 -2 -108 l3 -94 103 -3 c118 -3 122 0 101 75
-16 58 -70 114 -125 131 -53 15 -73 15 -80 -1z m128 -75 c9 -9 24 -34 33 -54
l15 -38 -70 0 -70 0 0 70 0 70 38 -15 c20 -9 45 -24 54 -33z"/>
<path d="M390 547 c-78 -25 -140 -129 -127 -212 14 -87 65 -144 150 -166 116
-32 238 55 241 171 l1 35 -87 3 -87 3 -3 87 c-3 85 -4 87 -28 89 -14 1 -41 -4
-60 -10z m142 -207 l87 -5 -18 -41 c-27 -61 -73 -89 -143 -89 -94 0 -153 59
-153 153 0 70 28 116 89 143 l41 18 5 -87 5 -87 87 -5z"/>
<path d="M760 290 l0 -90 -50 0 -51 0 84 -96 c47 -53 87 -97 89 -97 3 -1 42
42 87 95 l82 98 -51 0 -50 0 0 90 0 90 -70 0 -70 0 0 -90z m100 -40 l0 -90 31
0 30 0 -43 -50 -43 -50 -48 48 -48 47 30 3 31 3 0 90 0 89 30 0 30 0 0 -90z"/>
</g>
</svg>
