<?xml version="1.0" standalone="no"?>
<!DOCTYPE svg PUBLIC "-//W3C//DTD SVG 20010904//EN"
 "http://www.w3.org/TR/2001/REC-SVG-20010904/DTD/svg10.dtd">
<svg version="1.0" xmlns="http://www.w3.org/2000/svg"
 width="1660.000000pt" height="1875.000000pt" viewBox="0 0 1660.000000 1875.000000"
 preserveAspectRatio="xMidYMid meet">

<g transform="translate(0.000000,1875.000000) scale(0.100000,-0.100000)"
fill="#000000" stroke="none">
<path d="M1010 18741 c0 -5 -21 -12 -46 -16 -203 -30 -469 -190 -601 -362
-125 -163 -188 -303 -215 -483 -20 -129 -19 -15970 1 -16050 105 -426 402
-724 809 -810 28 -7 52 -16 52 -21 0 -5 1752 -9 4435 -9 l4435 0 0 350 0 350
-4378 0 c-3917 0 -4384 2 -4430 15 -119 36 -206 126 -237 245 -15 56 -16 745
-18 7923 -2 7592 -1 7864 16 7922 39 126 133 218 253 249 56 15 467 16 4265
14 l4204 -3 5 -1590 c6 -1834 -5 -1651 110 -1765 114 -115 -69 -104 1765 -110
l1590 -5 3 -2767 2 -2768 345 0 345 0 0 2985 c0 1812 -4 2985 -9 2985 -5 0
-12 13 -16 29 -3 16 -24 56 -47 88 -58 84 -3456 3481 -3538 3538 -36 25 -80
48 -97 51 -18 4 -33 10 -33 15 0 5 -1929 9 -4485 9 -2600 0 -4485 -4 -4485 -9z
m10390 -2316 c892 -893 1122 -1127 1110 -1135 -24 -15 -2233 -13 -2248 2 -9 9
-12 271 -12 1119 0 609 3 1114 6 1123 3 9 9 16 13 16 3 0 512 -506 1131 -1125z"/>
<path d="M4755 16651 c-119 -34 -210 -125 -240 -239 -19 -76 -19 -110 1 -179
35 -120 124 -207 242 -237 53 -14 268 -16 1922 -16 2053 0 1933 -4 2027 61 55
38 119 118 133 167 49 166 -10 326 -150 410 -92 54 0 52 -2016 51 -1729 0
-1863 -2 -1919 -18z"/>
<path d="M4752 15264 c-138 -38 -252 -185 -252 -325 0 -105 65 -225 154 -283
105 -70 -28 -66 2025 -66 1675 0 1858 2 1916 16 119 30 215 121 249 235 53
178 -48 366 -225 419 -65 20 -98 20 -1940 19 -1599 -1 -1882 -3 -1927 -15z"/>
<path d="M4539 13181 c-115 -37 -194 -117 -231 -233 -23 -75 -23 -107 1 -184
38 -126 125 -207 255 -240 65 -16 73 -16 140 0 135 32 230 127 262 261 16 68
16 76 0 141 -33 129 -114 217 -238 256 -73 22 -117 22 -189 -1z"/>
<path d="M5933 13184 c-112 -30 -203 -121 -237 -234 -35 -117 -9 -226 79 -329
31 -36 93 -72 160 -93 57 -17 172 -18 2720 -18 2535 0 2664 1 2726 18 123 34
215 131 245 257 16 68 16 76 0 141 -32 129 -122 222 -248 258 -51 15 -299 16
-2725 15 -2269 -1 -2676 -3 -2720 -15z"/>
<path d="M4538 11794 c-119 -37 -205 -129 -235 -253 -16 -67 -16 -75 1 -146
31 -129 119 -219 250 -255 76 -21 80 -21 148 -5 136 34 233 129 264 260 17 73
17 79 0 143 -51 199 -243 313 -428 256z"/>
<path d="M5915 11790 c-134 -43 -234 -182 -235 -323 0 -105 61 -217 152 -279
109 -74 -117 -69 2853 -66 2517 3 2663 4 2712 21 112 38 199 134 228 251 17
69 17 75 1 144 -31 126 -119 221 -237 256 -47 14 -323 16 -2733 15 -2618 0
-2682 -1 -2741 -19z"/>
<path d="M11015 9505 c-327 -59 -604 -265 -747 -555 -60 -122 -84 -200 -104
-330 -23 -151 -7 -333 41 -460 35 -93 59 -146 86 -190 16 -26 29 -53 29 -60 0
-15 -28 -47 -205 -235 -72 -77 -191 -205 -265 -285 -74 -80 -198 -212 -275
-295 -78 -82 -206 -220 -286 -306 -143 -155 -573 -617 -804 -864 -67 -71 -219
-234 -339 -362 -119 -128 -221 -235 -226 -238 -5 -3 -55 4 -112 16 -162 34
-351 19 -529 -41 -42 -14 -72 -19 -82 -14 -14 9 -106 121 -423 515 -426 530
-562 699 -607 753 -56 68 -56 68 -8 191 21 52 39 127 52 214 18 119 19 147 9
234 -56 482 -396 844 -870 928 -339 60 -732 -89 -956 -362 -132 -161 -199
-318 -231 -537 -15 -110 -15 -124 1 -244 11 -80 29 -158 48 -210 51 -138 56
-121 -74 -260 -63 -68 -198 -213 -299 -322 -179 -194 -227 -247 -643 -699
-110 -119 -204 -217 -210 -217 -5 0 -49 13 -96 30 -164 57 -336 72 -496 45
-329 -57 -594 -243 -746 -523 -133 -244 -167 -548 -88 -783 11 -32 20 -64 20
-71 0 -13 56 -127 93 -188 72 -121 216 -265 337 -337 70 -42 175 -93 193 -93
10 0 30 -6 45 -13 35 -18 117 -35 222 -46 99 -11 226 1 333 30 40 11 86 23
103 28 98 26 307 163 395 257 184 200 290 462 289 717 -1 89 -34 271 -65 352
-43 113 -46 101 52 206 104 112 369 399 537 584 66 71 174 189 241 260 67 72
179 193 249 270 70 77 134 144 142 148 12 7 59 -4 159 -39 54 -19 217 -44 285
-44 69 0 232 25 285 44 71 26 125 37 139 29 11 -7 145 -171 516 -634 47 -58
184 -229 305 -378 121 -150 228 -284 237 -299 20 -30 19 -34 -27 -152 -61
-156 -79 -373 -44 -542 65 -321 260 -580 544 -722 154 -77 213 -93 440 -120
37 -5 183 10 250 25 229 51 453 188 582 357 143 185 205 338 233 573 22 185
-36 441 -134 598 -14 22 -26 49 -26 59 0 17 63 89 320 362 75 80 196 210 270
290 74 80 172 186 220 235 47 50 227 243 400 430 173 187 353 380 400 430 47
49 173 185 280 300 107 116 264 283 348 373 173 181 166 178 282 147 63 -17
221 -19 325 -5 331 46 628 261 777 560 80 162 111 292 111 465 0 173 -31 303
-111 465 -126 253 -350 442 -622 524 -157 47 -326 59 -475 31z m263 -689 c109
-29 200 -116 238 -227 60 -180 -48 -378 -235 -433 -71 -21 -116 -20 -188 2
-121 38 -208 131 -237 255 -17 70 -17 78 -1 143 48 196 234 310 423 260z
m-5989 -1392 c117 -34 208 -133 236 -256 14 -61 14 -75 0 -134 -18 -77 -26
-95 -72 -151 -124 -154 -340 -173 -485 -43 -62 55 -101 123 -119 208 -9 44 -8
65 6 121 49 199 241 313 434 255z m-2641 -2772 c123 -39 205 -126 239 -254 15
-58 16 -74 4 -130 -27 -135 -116 -235 -241 -272 -258 -77 -501 165 -425 422
35 117 125 205 243 237 67 19 112 18 180 -3z m5072 -1 c56 -17 131 -72 172
-126 50 -65 72 -141 66 -225 -6 -83 -34 -146 -94 -210 -181 -194 -493 -119
-574 139 -24 76 -25 111 -4 182 34 115 119 203 234 241 58 19 133 19 200 -1z"/>
<path d="M12290 5480 c0 -1993 -3 -2500 -12 -2500 -7 0 -240 185 -518 410
-278 225 -510 410 -516 410 -10 0 -307 -237 -1004 -803 -74 -60 -181 -146
-237 -191 -56 -44 -102 -86 -103 -92 0 -5 55 -55 123 -109 752 -607 3116
-2520 3160 -2558 l58 -50 47 40 c26 21 94 77 152 124 58 47 328 265 600 485
272 220 945 765 1495 1210 550 445 1015 820 1033 834 l32 26 -217 174 c-119
96 -257 209 -308 250 -457 373 -818 660 -828 660 -7 0 -241 -185 -519 -410
-279 -226 -512 -410 -518 -410 -7 0 -10 774 -10 2500 l0 2500 -955 0 -955 0 0
-2500z m1318 2032 c10 -7 12 -575 12 -2830 0 -2017 3 -2823 11 -2827 6 -4 23
4 37 18 15 13 288 235 607 493 661 533 814 657 904 731 56 46 67 51 82 40 20
-14 435 -350 488 -394 l33 -29 -123 -100 c-68 -55 -385 -311 -704 -569 -319
-258 -625 -505 -680 -550 -485 -394 -997 -806 -1014 -817 -25 -15 -14 -22
-173 107 -150 123 -1336 1083 -1913 1548 -231 187 -430 349 -443 361 l-23 22
263 212 c145 117 268 211 275 210 9 -3 414 -327 1188 -954 358 -290 413 -334
419 -334 3 0 6 1273 6 2829 0 2254 3 2830 13 2834 20 9 721 7 735 -1z"/>
</g>
</svg>
