<?xml version="1.0" standalone="no"?>
<!DOCTYPE svg PUBLIC "-//W3C//DTD SVG 20010904//EN"
 "http://www.w3.org/TR/2001/REC-SVG-20010904/DTD/svg10.dtd">
<svg version="1.0" xmlns="http://www.w3.org/2000/svg"
 width="1485.000000pt" height="1500.000000pt" viewBox="0 0 1485.000000 1500.000000"
 preserveAspectRatio="xMidYMid meet">

<g transform="translate(0.000000,1500.000000) scale(0.100000,-0.100000)"
fill="#000000" stroke="none">
<path d="M3820 14990 c0 -5 -16 -13 -35 -19 -58 -16 -157 -76 -201 -123 -46
-48 -84 -110 -117 -190 l-22 -53 -3 -1050 c-3 -1160 -6 -1110 60 -1236 53
-102 170 -200 285 -240 71 -24 216 -26 294 -3 115 34 249 145 301 250 61 122
59 78 56 1229 l-3 1050 -22 53 c-64 157 -185 276 -315 312 -21 6 -38 15 -38
20 0 6 -50 10 -120 10 -69 0 -120 -4 -120 -10z"/>
<path d="M10630 14990 c0 -5 -12 -13 -27 -16 -114 -27 -248 -146 -300 -265
-49 -110 -48 -77 -48 -1184 0 -864 2 -1048 14 -1090 41 -146 145 -270 278
-332 72 -34 87 -37 186 -41 93 -4 118 -1 175 18 89 30 164 81 223 152 58 70
73 97 99 181 19 60 20 98 20 1118 0 1007 -1 1058 -19 1110 -32 94 -62 142
-130 210 -65 65 -138 110 -200 124 -17 3 -31 11 -31 16 0 5 -54 9 -120 9 -72
0 -120 -4 -120 -10z"/>
<path d="M1430 14024 c-172 -16 -256 -33 -411 -85 -440 -146 -804 -534 -930
-989 -9 -36 -26 -110 -36 -165 -17 -96 -18 -316 -18 -5585 0 -5269 1 -5489 18
-5585 32 -174 71 -292 144 -439 136 -271 398 -526 674 -655 191 -90 331 -125
559 -142 84 -6 1135 -8 2805 -7 l2670 3 59 23 c172 65 287 190 330 358 52 202
-36 418 -218 536 -33 21 -82 46 -110 56 -48 16 -224 17 -2806 22 -2601 5
-2757 6 -2798 23 -89 36 -128 61 -188 121 -62 62 -92 110 -122 195 -16 42 -17
366 -19 4210 -2 3085 0 4167 8 4177 10 12 708 14 4398 14 3033 0 4405 3 4444
11 86 15 173 65 247 139 163 164 195 395 81 594 -42 73 -145 166 -228 207
l-68 34 -4429 3 c-3309 1 -4433 5 -4443 14 -11 9 -13 134 -10 772 3 824 1 785
58 897 29 58 133 157 200 192 110 56 125 57 720 57 512 0 550 1 607 19 122 39
209 104 277 206 131 199 104 448 -69 621 -79 79 -125 105 -235 134 -70 19
-108 20 -600 18 -289 0 -542 -3 -561 -4z"/>
<path d="M5285 14010 c-150 -38 -266 -132 -331 -266 -94 -196 -58 -410 96
-565 69 -70 116 -99 212 -130 59 -18 115 -19 2083 -19 l2023 0 68 21 c149 46
270 161 327 309 23 59 32 190 18 263 -25 134 -133 278 -257 344 -128 67 8 63
-2186 62 -1875 -1 -1987 -2 -2053 -19z"/>
<path d="M12155 14024 c-133 -30 -200 -62 -273 -128 -68 -63 -112 -130 -142
-218 -19 -57 -22 -82 -18 -175 4 -94 8 -116 35 -173 62 -132 179 -237 313
-280 59 -19 91 -20 608 -20 602 0 618 -1 735 -63 67 -35 162 -133 193 -198 56
-118 54 -82 54 -895 0 -612 -2 -754 -13 -763 -10 -7 -310 -11 -1033 -13
l-1019 -3 -78 -37 c-260 -124 -362 -433 -226 -688 61 -115 202 -222 327 -249
37 -8 346 -11 1035 -11 751 0 986 -3 995 -12 9 -9 12 -319 12 -1333 0 -1456
-3 -1374 63 -1499 57 -107 152 -188 279 -238 75 -30 241 -30 316 0 159 62 256
161 315 320 l22 57 0 2645 c0 2778 1 2705 -42 2860 -63 226 -133 369 -264 542
-195 255 -491 450 -804 528 -157 39 -200 42 -790 45 -319 2 -589 1 -600 -1z"/>
<path d="M3545 8699 c-229 -73 -397 -244 -460 -469 -25 -87 -25 -261 0 -345
78 -265 286 -448 554 -486 208 -29 402 34 552 181 109 108 167 215 195 364 18
91 18 143 -1 241 -19 99 -87 240 -150 312 -78 89 -197 164 -320 202 -92 29
-282 29 -370 0z"/>
<path d="M5955 8699 c-122 -40 -193 -82 -282 -170 -78 -76 -132 -165 -169
-274 -34 -102 -39 -253 -11 -358 50 -189 190 -361 357 -438 90 -41 112 -48
198 -60 244 -34 473 60 625 259 280 366 108 897 -336 1037 -103 33 -288 35
-382 4z"/>
<path d="M8365 8699 c-118 -38 -198 -86 -282 -169 -96 -94 -160 -212 -187
-348 -20 -103 -20 -141 0 -244 69 -352 391 -587 741 -540 281 37 496 232 564
512 83 338 -127 693 -469 791 -94 27 -282 26 -367 -2z"/>
<path d="M10775 8699 c-115 -37 -189 -81 -271 -159 -117 -111 -179 -236 -204
-408 -11 -70 -10 -96 5 -180 64 -361 386 -601 743 -554 222 30 413 166 510
364 56 117 67 165 67 303 0 106 -4 129 -29 200 -76 218 -241 375 -456 436 -92
27 -281 25 -365 -2z"/>
<path d="M13000 6650 c-189 -18 -365 -86 -515 -198 -81 -61 -4012 -3989 -4080
-4077 -64 -83 -133 -213 -163 -305 -51 -159 -52 -169 -52 -927 0 -664 1 -712
19 -773 23 -81 55 -140 106 -198 47 -53 139 -115 207 -140 26 -9 48 -20 48
-24 0 -5 344 -8 765 -8 454 0 765 4 765 9 0 5 19 12 43 16 108 17 254 79 382
163 53 35 547 523 2066 2041 1097 1098 2017 2024 2043 2058 83 111 160 278
186 406 6 31 16 57 21 57 5 0 9 66 9 155 0 89 -4 155 -9 155 -5 0 -15 26 -21
58 -26 128 -74 239 -158 367 -63 95 -876 911 -981 984 -201 139 -443 203 -681
181z m478 -1364 c219 -220 362 -371 362 -383 0 -22 -359 -383 -381 -383 -18 0
-749 731 -749 749 0 24 361 381 385 381 14 0 137 -117 383 -364z m-1103 -1106
l380 -380 -1400 -1400 -1400 -1400 -380 2 -380 3 -3 380 -2 380 1397 1397
c769 769 1400 1398 1403 1398 3 0 176 -171 385 -380z"/>
<path d="M3593 6370 c-238 -51 -436 -240 -508 -485 -25 -86 -25 -249 0 -340
54 -195 189 -353 377 -439 94 -44 193 -60 319 -53 170 10 308 76 434 209 87
90 145 200 169 322 20 99 20 164 0 262 -49 239 -211 420 -453 506 -63 23 -266
34 -338 18z"/>
<path d="M6003 6370 c-216 -43 -421 -225 -492 -438 -50 -149 -51 -284 -1 -433
62 -185 227 -349 421 -420 56 -20 82 -23 209 -23 114 0 156 4 195 18 93 34
140 58 206 108 323 243 360 710 79 995 -98 100 -224 169 -351 193 -61 12 -206
11 -266 0z"/>
<path d="M8435 6373 c-153 -24 -324 -132 -420 -263 -76 -104 -135 -276 -135
-395 0 -53 32 -203 56 -260 49 -118 171 -255 288 -320 122 -68 165 -78 326
-79 152 0 199 10 304 63 270 138 421 463 347 747 -61 237 -215 402 -451 486
-55 20 -245 33 -315 21z"/>
<path d="M3630 4030 c-156 -21 -309 -109 -415 -237 -58 -71 -96 -142 -127
-241 -30 -95 -30 -269 0 -366 55 -173 157 -304 307 -392 330 -193 759 -65 928
276 71 145 91 272 63 416 -25 135 -80 244 -172 343 -75 81 -158 132 -299 184
-49 18 -211 28 -285 17z"/>
<path d="M6045 4030 c-264 -37 -482 -234 -552 -499 -22 -83 -22 -244 -1 -321
77 -274 289 -461 565 -501 229 -32 481 74 617 260 119 162 162 364 117 548
-23 94 -42 140 -87 211 -142 222 -396 338 -659 302z"/>
</g>
</svg>
