<svg xmlns="http://www.w3.org/2000/svg" width="30" height="28" viewBox="0 0 30 28">
  <defs>
    <style>
      .cls-1 {
        fill: #2e004b;
      }
    </style>
  </defs>
  <path id="home" class="cls-1" d="M29.694,12.178l0,0L17.453.754a2.9,2.9,0,0,0-3.906,0L1.314,12.17l-.012.012a2.46,2.46,0,0,0,.005,3.64,2.842,2.842,0,0,0,1.833.752c.028,0,.057,0,.085,0h.488v8.405A3.134,3.134,0,0,0,6.946,28h4.788a.851.851,0,0,0,.879-.82v-6.59a1.43,1.43,0,0,1,1.475-1.376h2.824a1.43,1.43,0,0,1,1.475,1.376v6.59a.851.851,0,0,0,.879.82h4.788a3.134,3.134,0,0,0,3.233-3.017V16.577h.452a2.847,2.847,0,0,0,1.953-.755,2.461,2.461,0,0,0,0-3.644Zm-1.245,2.484a1.035,1.035,0,0,1-.71.275H26.408a.851.851,0,0,0-.879.82v9.226a1.43,1.43,0,0,1-1.475,1.376H20.145v-5.77a3.134,3.134,0,0,0-3.233-3.017H14.088a3.134,3.134,0,0,0-3.233,3.017v5.77H6.946a1.43,1.43,0,0,1-1.475-1.376V15.757a.851.851,0,0,0-.879-.82H3.283l-.041,0a1.033,1.033,0,0,1-.692-.273.9.9,0,0,1,0-1.325h0L14.79,1.914a1.055,1.055,0,0,1,1.42,0L28.445,13.333l.006.005a.9.9,0,0,1,0,1.324Zm0,0" transform="translate(-0.5 0.001)"/>
</svg>
