<svg xmlns="http://www.w3.org/2000/svg" width="30" height="28" viewBox="0 0 38.501 38.501">
  <defs>
    <style>
      .cls-1 {
        fill: #2e004b;
      }
    </style>
  </defs>
  <g id="management" transform="translate(-0.5)">
    <path id="Path_5" data-name="Path 5" class="cls-1" d="M63.226,21.176V19.892a.642.642,0,0,0,.642-.642V15.4a.642.642,0,0,0-.642-.642H59.761l-.124-.482a11.858,11.858,0,0,0-1.309-3.135l-.257-.429,2.46-2.464a.636.636,0,0,0,0-.9L57.806,4.62a.651.651,0,0,0-.9,0L54.442,7.085l-.429-.257a11.885,11.885,0,0,0-3.139-1.31l-.482-.125V1.925a.642.642,0,0,0-.642-.642H45.9a.642.642,0,0,0-.642.642V5.39l-.482.125a11.882,11.882,0,0,0-3.136,1.308l-.429.257L38.748,4.62a.651.651,0,0,0-.9,0L35.12,7.345a.637.637,0,0,0,0,.9l2.465,2.464-.257.429a11.857,11.857,0,0,0-1.309,3.135l-.126.482H32.425a.642.642,0,0,0-.642.642v3.85a.642.642,0,0,0,.642.642v1.283A1.925,1.925,0,0,1,30.5,19.251V15.4a1.925,1.925,0,0,1,1.925-1.925h2.483a13.1,13.1,0,0,1,1.068-2.556L34.211,9.155a1.919,1.919,0,0,1,0-2.717l2.727-2.727a1.965,1.965,0,0,1,2.717,0L41.42,5.475a13.106,13.106,0,0,1,2.556-1.067V1.925A1.925,1.925,0,0,1,45.9,0h3.85a1.925,1.925,0,0,1,1.925,1.925V4.408a13.108,13.108,0,0,1,2.556,1.067L56,3.711a1.965,1.965,0,0,1,2.718,0L61.44,6.437a1.92,1.92,0,0,1,0,2.717l-1.765,1.765a13.153,13.153,0,0,1,1.068,2.556h2.483A1.925,1.925,0,0,1,65.151,15.4v3.85a1.925,1.925,0,0,1-1.925,1.925Zm0,0" transform="translate(-28.075)"/>
    <path id="Path_6" data-name="Path 6" class="cls-1" d="M178.467,138.984h-1.283a7.7,7.7,0,1,0-15.4,0H160.5a8.984,8.984,0,0,1,17.967,0Zm0,0" transform="translate(-149.733 -121.658)"/>
    <path id="Path_7" data-name="Path 7" class="cls-1" d="M244.35,237.7a3.85,3.85,0,1,1,3.85-3.85A3.85,3.85,0,0,1,244.35,237.7Zm0-6.417a2.567,2.567,0,1,0,2.567,2.567A2.567,2.567,0,0,0,244.35,231.283Zm0,0" transform="translate(-224.6 -215.241)"/>
    <path id="Path_8" data-name="Path 8" class="cls-1" d="M414.35,277.7a3.85,3.85,0,1,1,3.85-3.85A3.85,3.85,0,0,1,414.35,277.7Zm0-6.417a2.567,2.567,0,1,0,2.567,2.567A2.567,2.567,0,0,0,414.35,271.283Zm0,0" transform="translate(-383.691 -252.674)"/>
    <path id="Path_9" data-name="Path 9" class="cls-1" d="M74.35,277.7a3.85,3.85,0,1,1,3.85-3.85A3.85,3.85,0,0,1,74.35,277.7Zm0-6.417a2.567,2.567,0,1,0,2.567,2.567A2.567,2.567,0,0,0,74.35,271.283Zm0,0" transform="translate(-65.508 -252.674)"/>
    <path id="Path_10" data-name="Path 10" class="cls-1" d="M36.476,363.57a5.711,5.711,0,0,0-3.251-1H28.092a5.746,5.746,0,0,0-.931.084,5.758,5.758,0,0,0-1.571-1.631,2.485,2.485,0,0,0-.3-.192A5.73,5.73,0,0,0,22.317,360H17.184a5.711,5.711,0,0,0-4.842,2.651,5.77,5.77,0,0,0-.933-.084H6.275a5.711,5.711,0,0,0-3.249,1A5.775,5.775,0,0,0,.5,368.341v2.567a4.5,4.5,0,0,0,2.613,4.077,4.35,4.35,0,0,0,1.879.415h6.417v-1.283H5.633v-7.059H4.35v6.994a3.011,3.011,0,0,1-.7-.232,3.213,3.213,0,0,1-1.868-2.912v-2.567a4.5,4.5,0,0,1,1.967-3.713,4.438,4.438,0,0,1,2.524-.779h5.133c.113,0,.222.012.332.02a5.775,5.775,0,0,0-.332,1.905v6.417a3.213,3.213,0,0,0,3.208,3.208h1.925V365.133H15.259v8.984h-.642a1.925,1.925,0,0,1-1.925-1.925v-6.417a4.492,4.492,0,0,1,4.492-4.492h5.133a4.484,4.484,0,0,1,2.339.66,1.6,1.6,0,0,1,.187.12,4.546,4.546,0,0,1,1.439,1.6,4.482,4.482,0,0,1,.527,2.108v6.417a1.925,1.925,0,0,1-1.925,1.925h-.642v-8.984H22.959V375.4h1.925a3.212,3.212,0,0,0,3.208-3.208v-6.417a5.788,5.788,0,0,0-.332-1.906c.111-.008.22-.02.332-.02h5.133a4.441,4.441,0,0,1,2.526.78,4.5,4.5,0,0,1,1.966,3.712v2.567a3.213,3.213,0,0,1-1.879,2.917,2.951,2.951,0,0,1-.688.227v-6.994H33.867v7.059H28.092V375.4h6.417a4.339,4.339,0,0,0,1.868-.41A4.5,4.5,0,0,0,39,370.908v-2.567a5.775,5.775,0,0,0-2.525-4.771Zm0,0" transform="translate(0 -336.898)"/>
    <path id="Path_11" data-name="Path 11" class="cls-1" d="M260.5,580h5.133v1.283H260.5Zm0,0" transform="translate(-243.316 -542.782)"/>
  </g>
</svg>
