<svg xmlns="http://www.w3.org/2000/svg" width="30" height="28" viewBox="0 0 149.667 149.667">
  <defs>
    <style>
      .cls-1 {
        fill: #2e004b;
      }
    </style>
  </defs>
  <g id="Calendar" transform="translate(-2 -2)">
    <path id="Path_12" data-name="Path 12" class="cls-1" d="M139.195,16.967H126.722V11.978a9.978,9.978,0,1,0-19.956,0v4.989H86.811V11.978a9.978,9.978,0,0,0-19.956,0v4.989H46.9V11.978a9.978,9.978,0,1,0-19.956,0v4.989H14.472A12.472,12.472,0,0,0,2,29.439v99.778a12.472,12.472,0,0,0,12.472,12.472H84.317a2.494,2.494,0,0,0,0-4.989H14.472a7.506,7.506,0,0,1-7.483-7.483V51.889H146.678V94.294a2.494,2.494,0,0,0,4.989,0V29.439a12.472,12.472,0,0,0-12.472-12.472Zm-27.439-4.989a4.989,4.989,0,1,1,9.978,0V26.944a4.989,4.989,0,0,1-9.978,0Zm-39.911,0a4.989,4.989,0,1,1,9.978,0V26.944a4.989,4.989,0,0,1-9.978,0Zm-39.911,0a4.989,4.989,0,1,1,9.978,0V26.944a4.989,4.989,0,0,1-9.978,0ZM146.678,46.9H6.989V29.439a7.506,7.506,0,0,1,7.483-7.483H26.944v4.989a9.978,9.978,0,0,0,19.956,0V21.956H66.856v4.989a9.978,9.978,0,0,0,19.956,0V21.956h19.956v4.989a9.978,9.978,0,0,0,19.956,0V21.956h12.472a7.506,7.506,0,0,1,7.483,7.483Z" transform="translate(0 0)"/>
    <path id="Path_13" data-name="Path 13" class="cls-1" d="M41.956,31.989A4.989,4.989,0,0,0,36.967,27H26.989A4.989,4.989,0,0,0,22,31.989v7.483a4.989,4.989,0,0,0,4.989,4.989h9.978a4.989,4.989,0,0,0,4.989-4.989ZM26.989,39.472V31.989h9.978v7.483Z" transform="translate(29.889 37.361)"/>
    <path id="Path_14" data-name="Path 14" class="cls-1" d="M29.956,31.989A4.989,4.989,0,0,0,24.967,27H14.989A4.989,4.989,0,0,0,10,31.989v7.483a4.989,4.989,0,0,0,4.989,4.989h9.978a4.989,4.989,0,0,0,4.989-4.989ZM14.989,39.472V31.989h9.978v7.483Z" transform="translate(11.956 37.361)"/>
    <path id="Path_15" data-name="Path 15" class="cls-1" d="M60.967,44.461a4.989,4.989,0,0,0,4.989-4.989V31.989A4.989,4.989,0,0,0,60.967,27H50.989A4.989,4.989,0,0,0,46,31.989v7.483a4.989,4.989,0,0,0,4.989,4.989ZM50.989,31.989h9.978v7.483H50.989Z" transform="translate(65.756 37.361)"/>
    <path id="Path_16" data-name="Path 16" class="cls-1" d="M41.956,40.989A4.989,4.989,0,0,0,36.967,36H26.989A4.989,4.989,0,0,0,22,40.989v7.483a4.989,4.989,0,0,0,4.989,4.989h9.978a4.989,4.989,0,0,0,4.989-4.989ZM26.989,48.472V40.989h9.978v7.483Z" transform="translate(29.889 50.811)"/>
    <path id="Path_17" data-name="Path 17" class="cls-1" d="M29.956,40.989A4.989,4.989,0,0,0,24.967,36H14.989A4.989,4.989,0,0,0,10,40.989v7.483a4.989,4.989,0,0,0,4.989,4.989h9.978a4.989,4.989,0,0,0,4.989-4.989ZM14.989,48.472V40.989h9.978v7.483Z" transform="translate(11.956 50.811)"/>
    <path id="Path_18" data-name="Path 18" class="cls-1" d="M36.967,45H26.989A4.989,4.989,0,0,0,22,49.989v7.483a4.989,4.989,0,0,0,4.989,4.989h9.978a4.989,4.989,0,0,0,4.989-4.989V49.989A4.989,4.989,0,0,0,36.967,45ZM26.989,57.472V49.989h9.978v7.483Z" transform="translate(29.889 64.261)"/>
    <path id="Path_19" data-name="Path 19" class="cls-1" d="M38.989,44.461h9.978a4.989,4.989,0,0,0,4.989-4.989V31.989A4.989,4.989,0,0,0,48.967,27H38.989A4.989,4.989,0,0,0,34,31.989v7.483A4.989,4.989,0,0,0,38.989,44.461Zm0-12.472h9.978v7.483H38.989Z" transform="translate(47.822 37.361)"/>
    <path id="Path_20" data-name="Path 20" class="cls-1" d="M34,48.472a4.989,4.989,0,0,0,4.989,4.989,2.494,2.494,0,0,0,0-4.989V40.989h9.978a2.494,2.494,0,0,0,0-4.989H38.989A4.989,4.989,0,0,0,34,40.989Z" transform="translate(47.822 50.811)"/>
    <path id="Path_21" data-name="Path 21" class="cls-1" d="M24.967,45H14.989A4.989,4.989,0,0,0,10,49.989v7.483a4.989,4.989,0,0,0,4.989,4.989h9.978a4.989,4.989,0,0,0,4.989-4.989V49.989A4.989,4.989,0,0,0,24.967,45ZM14.989,57.472V49.989h9.978v7.483Z" transform="translate(11.956 64.261)"/>
    <path id="Path_22" data-name="Path 22" class="cls-1" d="M68.428,36a32.428,32.428,0,1,0,32.428,32.428A32.428,32.428,0,0,0,68.428,36Zm0,59.867A27.439,27.439,0,1,1,95.867,68.428,27.439,27.439,0,0,1,68.428,95.867Z" transform="translate(50.811 50.811)"/>
    <path id="Path_23" data-name="Path 23" class="cls-1" d="M74.236,45.246l-19.4,19.4-8.818-8.82a2.494,2.494,0,1,0-3.527,3.527L53.07,69.938a2.494,2.494,0,0,0,3.527,0L77.763,48.773a2.494,2.494,0,1,0-3.527-3.527Z" transform="translate(59.416 63.536)"/>
  </g>
</svg>
